<?xml version="1.0" standalone="no"?>
<!DOCTYPE svg PUBLIC "-//W3C//DTD SVG 20010904//EN"
 "http://www.w3.org/TR/2001/REC-SVG-20010904/DTD/svg10.dtd">
<svg version="1.0" xmlns="http://www.w3.org/2000/svg"
 width="500.000000pt" height="499.000000pt" viewBox="0 0 500.000000 499.000000"
 preserveAspectRatio="xMidYMid meet">

<g transform="translate(0.000000,499.000000) scale(0.100000,-0.100000)"
fill="#B0B0B0" stroke="none">
<path d="M2240 4939 c-589 -73 -1096 -315 -1495 -714 -399 -400 -652 -933
-706 -1485 -23 -243 2 -606 57 -825 79 -313 231 -630 433 -900 95 -127 324
-356 461 -460 470 -358 1098 -550 1653 -506 660 54 1188 295 1622 742 350 361
566 767 654 1229 64 341 50 796 -35 1110 -77 284 -238 608 -430 867 -84 113
-331 356 -459 451 -336 249 -722 413 -1114 473 -156 23 -518 34 -641 18z m595
-318 c303 -52 571 -158 820 -324 441 -294 749 -726 880 -1232 54 -211 59 -256
59 -545 0 -235 -3 -277 -23 -370 -65 -309 -161 -544 -318 -784 -84 -129 -127
-180 -291 -348 l-134 -136 7 -51 c4 -28 4 -51 1 -51 -3 0 -13 26 -21 58 -32
114 -58 178 -98 241 l-41 64 34 29 c71 61 162 154 181 184 11 18 39 41 63 52
55 26 103 81 112 129 6 30 2 47 -21 90 l-27 53 16 71 c19 86 20 142 1 321 -13
128 -16 143 -55 220 -52 102 -147 235 -202 282 -53 46 -192 117 -293 151 -77
26 -86 27 -235 22 -310 -11 -466 -91 -661 -337 -91 -115 -119 -171 -119 -235
0 -30 -13 -94 -30 -150 -41 -132 -39 -155 16 -260 l46 -87 -31 -43 c-42 -58
-44 -128 -5 -175 30 -35 73 -60 105 -60 23 0 23 0 3 80 -3 14 10 -3 29 -36 83
-151 163 -227 311 -299 106 -52 186 -73 311 -81 125 -9 147 -27 25 -20 -109 5
-224 27 -325 61 l-70 24 -19 -22 c-24 -27 -89 -165 -110 -232 -9 -27 -25 -115
-36 -195 -20 -138 -25 -159 -34 -149 -2 2 -19 67 -36 144 -41 180 -192 732
-233 855 l-32 95 -145 41 c-80 22 -155 44 -167 48 -13 4 -23 4 -23 -1 0 -5 23
-40 51 -78 79 -108 227 -418 245 -510 6 -34 2 -39 -76 -120 l-82 -84 96 -95
c91 -90 109 -117 86 -131 -6 -3 -10 1 -10 11 0 9 -46 64 -102 121 l-102 103
82 78 c110 103 110 99 -9 349 -70 149 -169 322 -195 344 -26 21 -46 70 -40 95
5 17 23 32 64 52 35 16 78 49 111 84 44 46 66 61 110 74 97 28 97 28 57 82
-57 78 -53 99 22 107 96 11 95 9 67 90 -14 39 -25 76 -25 83 0 7 17 20 38 28
84 34 192 88 192 95 0 4 -30 25 -66 45 -83 46 -169 114 -157 124 4 4 55 26
113 49 114 44 272 129 268 143 -2 5 -62 34 -133 64 -72 30 -134 59 -140 65 -6
6 38 57 124 143 l134 134 -39 8 c-21 4 -100 17 -174 28 -119 19 -135 23 -132
40 2 10 46 92 98 183 52 91 93 168 90 171 -3 2 -70 -18 -148 -46 -185 -67
-194 -68 -206 -45 -18 32 -32 170 -32 304 0 71 -3 129 -6 129 -10 0 -148 -83
-189 -113 -22 -17 -74 -64 -116 -105 l-76 -74 -96 119 c-107 132 -176 208
-183 200 -3 -3 -12 -49 -20 -103 -22 -152 -66 -294 -90 -294 -7 0 -48 15 -91
34 -91 40 -154 62 -206 71 -44 9 -48 -5 -18 -63 49 -97 90 -266 69 -287 -3 -4
-84 -13 -180 -21 -95 -8 -193 -18 -217 -22 l-45 -7 80 -85 c96 -103 137 -154
160 -203 17 -37 17 -37 -7 -63 -13 -14 -69 -58 -124 -97 -55 -39 -113 -81
-128 -94 l-28 -23 24 -9 c14 -5 42 -13 63 -17 68 -12 143 -52 199 -105 30 -29
55 -58 55 -64 0 -7 -23 -35 -50 -62 -28 -26 -72 -72 -97 -102 -44 -50 -46 -54
-28 -67 10 -7 67 -30 126 -49 60 -20 109 -42 109 -48 0 -7 -9 -50 -20 -97 -11
-47 -22 -96 -26 -109 l-5 -24 105 5 106 5 10 -36 c5 -20 10 -52 10 -71 0 -61
11 -67 70 -40 28 13 49 26 48 29 -2 3 -22 38 -45 76 -51 85 -97 220 -123 368
-19 106 -26 186 -15 175 3 -3 12 -48 20 -101 21 -138 60 -268 115 -383 57
-118 104 -166 212 -216 58 -27 68 -36 68 -57 0 -14 -4 -31 -8 -37 -4 -6 -97
-41 -207 -78 -110 -38 -203 -71 -207 -75 -4 -3 -39 -116 -78 -251 -117 -407
-130 -444 -130 -369 0 28 -12 48 -66 109 -284 320 -453 671 -531 1100 -20 115
-24 510 -5 634 38 250 130 519 253 737 311 554 854 939 1479 1048 206 36 511
37 715 2z m-1329 -3089 c-39 -91 -116 -301 -140 -380 l-15 -53 57 -53 c31 -29
73 -67 92 -83 33 -29 34 -32 21 -57 -18 -33 -30 -34 -24 -2 4 19 -10 39 -76
103 -59 57 -81 86 -81 104 0 57 180 523 195 507 3 -3 -10 -41 -29 -86z"/>
</g>
</svg>
